<mxfile host="app.diagrams.net" agent="Mozilla/5.0 (Windows NT 10.0; Win64; x64) AppleWebKit/537.36 (KHTML, like Gecko) Chrome/139.0.0.0 Safari/537.36" version="28.1.2">
  <diagram name="Page-1" id="KKB2NjsQwszF3fX2GeY4">
    <mxGraphModel dx="1892" dy="527" grid="1" gridSize="10" guides="1" tooltips="1" connect="1" arrows="1" fold="1" page="1" pageScale="1" pageWidth="850" pageHeight="1100" math="0" shadow="0">
      <root>
        <mxCell id="0" />
        <mxCell id="1" parent="0" />
        <mxCell id="L2sxX1Pkix7zHzLcpsBF-4" style="edgeStyle=orthogonalEdgeStyle;rounded=0;orthogonalLoop=1;jettySize=auto;html=1;" edge="1" parent="1" source="L2sxX1Pkix7zHzLcpsBF-1" target="L2sxX1Pkix7zHzLcpsBF-2">
          <mxGeometry relative="1" as="geometry" />
        </mxCell>
        <mxCell id="L2sxX1Pkix7zHzLcpsBF-5" style="edgeStyle=orthogonalEdgeStyle;rounded=0;orthogonalLoop=1;jettySize=auto;html=1;entryX=0.5;entryY=0;entryDx=0;entryDy=0;" edge="1" parent="1" source="L2sxX1Pkix7zHzLcpsBF-1" target="L2sxX1Pkix7zHzLcpsBF-3">
          <mxGeometry relative="1" as="geometry">
            <Array as="points">
              <mxPoint x="710" y="80" />
              <mxPoint x="710" y="170" />
            </Array>
          </mxGeometry>
        </mxCell>
        <mxCell id="L2sxX1Pkix7zHzLcpsBF-1" value="&lt;font size=&quot;3&quot;&gt;Thiết kế giao diện&lt;/font&gt;" style="rounded=0;whiteSpace=wrap;html=1;" vertex="1" parent="1">
          <mxGeometry x="290" y="40" width="180" height="80" as="geometry" />
        </mxCell>
        <mxCell id="L2sxX1Pkix7zHzLcpsBF-8" style="edgeStyle=orthogonalEdgeStyle;rounded=0;orthogonalLoop=1;jettySize=auto;html=1;" edge="1" parent="1" source="L2sxX1Pkix7zHzLcpsBF-2" target="L2sxX1Pkix7zHzLcpsBF-6">
          <mxGeometry relative="1" as="geometry" />
        </mxCell>
        <mxCell id="L2sxX1Pkix7zHzLcpsBF-2" value="Cho người dùng" style="ellipse;whiteSpace=wrap;html=1;" vertex="1" parent="1">
          <mxGeometry x="90" y="170" width="120" height="80" as="geometry" />
        </mxCell>
        <mxCell id="L2sxX1Pkix7zHzLcpsBF-9" style="edgeStyle=orthogonalEdgeStyle;rounded=0;orthogonalLoop=1;jettySize=auto;html=1;" edge="1" parent="1" source="L2sxX1Pkix7zHzLcpsBF-3" target="L2sxX1Pkix7zHzLcpsBF-7">
          <mxGeometry relative="1" as="geometry" />
        </mxCell>
        <mxCell id="L2sxX1Pkix7zHzLcpsBF-3" value="Cho Design/ quản trị&amp;nbsp;" style="ellipse;whiteSpace=wrap;html=1;" vertex="1" parent="1">
          <mxGeometry x="650" y="170" width="120" height="80" as="geometry" />
        </mxCell>
        <mxCell id="L2sxX1Pkix7zHzLcpsBF-11" style="edgeStyle=orthogonalEdgeStyle;rounded=0;orthogonalLoop=1;jettySize=auto;html=1;" edge="1" parent="1" source="L2sxX1Pkix7zHzLcpsBF-6" target="L2sxX1Pkix7zHzLcpsBF-10">
          <mxGeometry relative="1" as="geometry" />
        </mxCell>
        <mxCell id="L2sxX1Pkix7zHzLcpsBF-6" value="Chức năng cho người dùng" style="rounded=0;whiteSpace=wrap;html=1;" vertex="1" parent="1">
          <mxGeometry x="90" y="300" width="120" height="60" as="geometry" />
        </mxCell>
        <mxCell id="L2sxX1Pkix7zHzLcpsBF-7" value="Chức năng cho người design" style="rounded=0;whiteSpace=wrap;html=1;" vertex="1" parent="1">
          <mxGeometry x="650" y="270" width="120" height="60" as="geometry" />
        </mxCell>
        <mxCell id="L2sxX1Pkix7zHzLcpsBF-13" style="edgeStyle=orthogonalEdgeStyle;rounded=0;orthogonalLoop=1;jettySize=auto;html=1;entryX=0.5;entryY=0;entryDx=0;entryDy=0;" edge="1" parent="1" source="L2sxX1Pkix7zHzLcpsBF-10" target="L2sxX1Pkix7zHzLcpsBF-12">
          <mxGeometry relative="1" as="geometry" />
        </mxCell>
        <mxCell id="L2sxX1Pkix7zHzLcpsBF-15" style="edgeStyle=orthogonalEdgeStyle;rounded=0;orthogonalLoop=1;jettySize=auto;html=1;" edge="1" parent="1" source="L2sxX1Pkix7zHzLcpsBF-10" target="L2sxX1Pkix7zHzLcpsBF-14">
          <mxGeometry relative="1" as="geometry">
            <Array as="points">
              <mxPoint x="250" y="440" />
            </Array>
          </mxGeometry>
        </mxCell>
        <mxCell id="L2sxX1Pkix7zHzLcpsBF-17" style="edgeStyle=orthogonalEdgeStyle;rounded=0;orthogonalLoop=1;jettySize=auto;html=1;entryX=0.5;entryY=0;entryDx=0;entryDy=0;" edge="1" parent="1" source="L2sxX1Pkix7zHzLcpsBF-10" target="L2sxX1Pkix7zHzLcpsBF-16">
          <mxGeometry relative="1" as="geometry" />
        </mxCell>
        <mxCell id="L2sxX1Pkix7zHzLcpsBF-10" value="Hệ thông truy cập/tương tác" style="rhombus;whiteSpace=wrap;html=1;" vertex="1" parent="1">
          <mxGeometry x="85" y="400" width="130" height="80" as="geometry" />
        </mxCell>
        <mxCell id="L2sxX1Pkix7zHzLcpsBF-12" value="Đăng nhập/ đăng xuất/ đăng ký người dùng" style="rounded=0;whiteSpace=wrap;html=1;" vertex="1" parent="1">
          <mxGeometry x="-90" y="530" width="120" height="60" as="geometry" />
        </mxCell>
        <mxCell id="L2sxX1Pkix7zHzLcpsBF-14" value="Tương tác với thông tin sản phẩm" style="rounded=0;whiteSpace=wrap;html=1;" vertex="1" parent="1">
          <mxGeometry x="190" y="530" width="120" height="60" as="geometry" />
        </mxCell>
        <mxCell id="L2sxX1Pkix7zHzLcpsBF-16" value="Mua sắm và các hình thức thanh toán, kiểm kê thông tin" style="rounded=0;whiteSpace=wrap;html=1;" vertex="1" parent="1">
          <mxGeometry x="460" y="515" width="140" height="70" as="geometry" />
        </mxCell>
        <mxCell id="L2sxX1Pkix7zHzLcpsBF-19" style="edgeStyle=orthogonalEdgeStyle;rounded=0;orthogonalLoop=1;jettySize=auto;html=1;entryX=0;entryY=0.5;entryDx=0;entryDy=0;" edge="1" parent="1" source="L2sxX1Pkix7zHzLcpsBF-18" target="L2sxX1Pkix7zHzLcpsBF-12">
          <mxGeometry relative="1" as="geometry">
            <Array as="points">
              <mxPoint x="-180" y="560" />
            </Array>
          </mxGeometry>
        </mxCell>
        <mxCell id="L2sxX1Pkix7zHzLcpsBF-18" value="Thiết kế cách thức lưu trữ tài khoản người dùng" style="shape=process;whiteSpace=wrap;html=1;backgroundOutline=1;" vertex="1" parent="1">
          <mxGeometry x="-240" y="650" width="120" height="60" as="geometry" />
        </mxCell>
        <mxCell id="L2sxX1Pkix7zHzLcpsBF-21" style="edgeStyle=orthogonalEdgeStyle;rounded=0;orthogonalLoop=1;jettySize=auto;html=1;entryX=0;entryY=0.5;entryDx=0;entryDy=0;" edge="1" parent="1" source="L2sxX1Pkix7zHzLcpsBF-20" target="L2sxX1Pkix7zHzLcpsBF-14">
          <mxGeometry relative="1" as="geometry">
            <Array as="points">
              <mxPoint x="120" y="560" />
            </Array>
          </mxGeometry>
        </mxCell>
        <mxCell id="L2sxX1Pkix7zHzLcpsBF-20" value="Thiết kế cách lưu trữ thông tin hàng hóa" style="shape=process;whiteSpace=wrap;html=1;backgroundOutline=1;" vertex="1" parent="1">
          <mxGeometry x="60" y="650" width="120" height="60" as="geometry" />
        </mxCell>
        <mxCell id="L2sxX1Pkix7zHzLcpsBF-23" style="edgeStyle=orthogonalEdgeStyle;rounded=0;orthogonalLoop=1;jettySize=auto;html=1;entryX=0;entryY=0.5;entryDx=0;entryDy=0;" edge="1" parent="1" source="L2sxX1Pkix7zHzLcpsBF-22" target="L2sxX1Pkix7zHzLcpsBF-16">
          <mxGeometry relative="1" as="geometry">
            <Array as="points">
              <mxPoint x="390" y="550" />
            </Array>
          </mxGeometry>
        </mxCell>
        <mxCell id="L2sxX1Pkix7zHzLcpsBF-22" value="Thiết kế lưu trữ thông tin mua hàng" style="shape=process;whiteSpace=wrap;html=1;backgroundOutline=1;" vertex="1" parent="1">
          <mxGeometry x="330" y="650" width="120" height="60" as="geometry" />
        </mxCell>
        <mxCell id="L2sxX1Pkix7zHzLcpsBF-25" style="edgeStyle=orthogonalEdgeStyle;rounded=0;orthogonalLoop=1;jettySize=auto;html=1;entryX=0.25;entryY=0;entryDx=0;entryDy=0;" edge="1" parent="1" source="L2sxX1Pkix7zHzLcpsBF-24" target="L2sxX1Pkix7zHzLcpsBF-12">
          <mxGeometry relative="1" as="geometry" />
        </mxCell>
        <mxCell id="L2sxX1Pkix7zHzLcpsBF-24" value="Phương thức cho người dùng và tài khoản người dùng" style="ellipse;whiteSpace=wrap;html=1;" vertex="1" parent="1">
          <mxGeometry x="-250" y="450" width="120" height="80" as="geometry" />
        </mxCell>
        <mxCell id="L2sxX1Pkix7zHzLcpsBF-27" style="edgeStyle=orthogonalEdgeStyle;rounded=0;orthogonalLoop=1;jettySize=auto;html=1;entryX=0.25;entryY=0;entryDx=0;entryDy=0;" edge="1" parent="1" source="L2sxX1Pkix7zHzLcpsBF-26" target="L2sxX1Pkix7zHzLcpsBF-14">
          <mxGeometry relative="1" as="geometry" />
        </mxCell>
        <mxCell id="L2sxX1Pkix7zHzLcpsBF-26" value="Phương thức cho người dùng và sản phẩm" style="ellipse;whiteSpace=wrap;html=1;" vertex="1" parent="1">
          <mxGeometry x="20" y="460" width="110" height="70" as="geometry" />
        </mxCell>
        <mxCell id="L2sxX1Pkix7zHzLcpsBF-29" style="edgeStyle=orthogonalEdgeStyle;rounded=0;orthogonalLoop=1;jettySize=auto;html=1;entryX=0.25;entryY=0;entryDx=0;entryDy=0;" edge="1" parent="1" source="L2sxX1Pkix7zHzLcpsBF-28" target="L2sxX1Pkix7zHzLcpsBF-16">
          <mxGeometry relative="1" as="geometry" />
        </mxCell>
        <mxCell id="L2sxX1Pkix7zHzLcpsBF-28" value="Phương thức cho người dùng + thông tin mua hàng" style="ellipse;whiteSpace=wrap;html=1;" vertex="1" parent="1">
          <mxGeometry x="320" y="455" width="120" height="80" as="geometry" />
        </mxCell>
        <mxCell id="L2sxX1Pkix7zHzLcpsBF-33" style="edgeStyle=orthogonalEdgeStyle;rounded=0;orthogonalLoop=1;jettySize=auto;html=1;entryX=0.25;entryY=0;entryDx=0;entryDy=0;" edge="1" parent="1" source="L2sxX1Pkix7zHzLcpsBF-30" target="L2sxX1Pkix7zHzLcpsBF-6">
          <mxGeometry relative="1" as="geometry">
            <Array as="points">
              <mxPoint x="-70" y="260" />
              <mxPoint x="120" y="260" />
            </Array>
          </mxGeometry>
        </mxCell>
        <mxCell id="L2sxX1Pkix7zHzLcpsBF-30" value="Giao diện đăng nhập/đăng kí" style="shape=process;whiteSpace=wrap;html=1;backgroundOutline=1;" vertex="1" parent="1">
          <mxGeometry x="-130" y="180" width="120" height="60" as="geometry" />
        </mxCell>
        <mxCell id="L2sxX1Pkix7zHzLcpsBF-31" value="Giao diện đa dạng sản phẩm&amp;nbsp;" style="shape=process;whiteSpace=wrap;html=1;backgroundOutline=1;" vertex="1" parent="1">
          <mxGeometry x="-130" y="270" width="120" height="60" as="geometry" />
        </mxCell>
        <mxCell id="L2sxX1Pkix7zHzLcpsBF-35" style="edgeStyle=orthogonalEdgeStyle;rounded=0;orthogonalLoop=1;jettySize=auto;html=1;entryX=0;entryY=0.5;entryDx=0;entryDy=0;" edge="1" parent="1" source="L2sxX1Pkix7zHzLcpsBF-32" target="L2sxX1Pkix7zHzLcpsBF-6">
          <mxGeometry relative="1" as="geometry" />
        </mxCell>
        <mxCell id="L2sxX1Pkix7zHzLcpsBF-32" value="Giao diện mua sắm, giỏ hàng" style="shape=process;whiteSpace=wrap;html=1;backgroundOutline=1;" vertex="1" parent="1">
          <mxGeometry x="-130" y="350" width="120" height="60" as="geometry" />
        </mxCell>
        <mxCell id="L2sxX1Pkix7zHzLcpsBF-34" style="edgeStyle=orthogonalEdgeStyle;rounded=0;orthogonalLoop=1;jettySize=auto;html=1;entryX=0.063;entryY=0.113;entryDx=0;entryDy=0;entryPerimeter=0;" edge="1" parent="1" source="L2sxX1Pkix7zHzLcpsBF-31" target="L2sxX1Pkix7zHzLcpsBF-6">
          <mxGeometry relative="1" as="geometry" />
        </mxCell>
        <mxCell id="L2sxX1Pkix7zHzLcpsBF-37" style="edgeStyle=orthogonalEdgeStyle;rounded=0;orthogonalLoop=1;jettySize=auto;html=1;entryX=0.75;entryY=0;entryDx=0;entryDy=0;" edge="1" parent="1" source="L2sxX1Pkix7zHzLcpsBF-36" target="L2sxX1Pkix7zHzLcpsBF-6">
          <mxGeometry relative="1" as="geometry">
            <Array as="points">
              <mxPoint x="330" y="260" />
              <mxPoint x="180" y="260" />
            </Array>
          </mxGeometry>
        </mxCell>
        <mxCell id="L2sxX1Pkix7zHzLcpsBF-36" value="Giao diện tìm kiếm" style="shape=process;whiteSpace=wrap;html=1;backgroundOutline=1;" vertex="1" parent="1">
          <mxGeometry x="270" y="190" width="120" height="60" as="geometry" />
        </mxCell>
        <mxCell id="L2sxX1Pkix7zHzLcpsBF-40" style="edgeStyle=orthogonalEdgeStyle;rounded=0;orthogonalLoop=1;jettySize=auto;html=1;entryX=1;entryY=0.25;entryDx=0;entryDy=0;" edge="1" parent="1" source="L2sxX1Pkix7zHzLcpsBF-38" target="L2sxX1Pkix7zHzLcpsBF-6">
          <mxGeometry relative="1" as="geometry" />
        </mxCell>
        <mxCell id="L2sxX1Pkix7zHzLcpsBF-38" value="Thiết kế giao diện thông tin sản phẩm" style="shape=process;whiteSpace=wrap;html=1;backgroundOutline=1;" vertex="1" parent="1">
          <mxGeometry x="280" y="270" width="120" height="60" as="geometry" />
        </mxCell>
        <mxCell id="L2sxX1Pkix7zHzLcpsBF-42" style="edgeStyle=orthogonalEdgeStyle;rounded=0;orthogonalLoop=1;jettySize=auto;html=1;entryX=1;entryY=0.75;entryDx=0;entryDy=0;" edge="1" parent="1" source="L2sxX1Pkix7zHzLcpsBF-39" target="L2sxX1Pkix7zHzLcpsBF-6">
          <mxGeometry relative="1" as="geometry" />
        </mxCell>
        <mxCell id="L2sxX1Pkix7zHzLcpsBF-39" value="Giao diện lịch sử mua hàng/ hóa đơn" style="shape=process;whiteSpace=wrap;html=1;backgroundOutline=1;size=0.08333333333333333;" vertex="1" parent="1">
          <mxGeometry x="260" y="360" width="120" height="60" as="geometry" />
        </mxCell>
        <mxCell id="L2sxX1Pkix7zHzLcpsBF-41" value="&lt;font size=&quot;3&quot;&gt;Tương lai: Thuê host server&amp;nbsp;&lt;br&gt;/ tự làm server&lt;/font&gt;" style="rounded=0;whiteSpace=wrap;html=1;" vertex="1" parent="1">
          <mxGeometry x="790" y="25" width="200" height="110" as="geometry" />
        </mxCell>
        <mxCell id="L2sxX1Pkix7zHzLcpsBF-45" style="edgeStyle=orthogonalEdgeStyle;rounded=0;orthogonalLoop=1;jettySize=auto;html=1;entryX=0.5;entryY=0;entryDx=0;entryDy=0;" edge="1" parent="1" source="L2sxX1Pkix7zHzLcpsBF-43" target="L2sxX1Pkix7zHzLcpsBF-44">
          <mxGeometry relative="1" as="geometry" />
        </mxCell>
        <mxCell id="L2sxX1Pkix7zHzLcpsBF-43" value="&lt;font style=&quot;font-size: 18px;&quot;&gt;Thiết kế server/ IP/ Địa chỉ website&lt;/font&gt;" style="rounded=0;whiteSpace=wrap;html=1;" vertex="1" parent="1">
          <mxGeometry x="1180" y="45" width="155" height="70" as="geometry" />
        </mxCell>
        <mxCell id="L2sxX1Pkix7zHzLcpsBF-44" value="Phân luồng cho người truy cập" style="rhombus;whiteSpace=wrap;html=1;" vertex="1" parent="1">
          <mxGeometry x="1146.25" y="157.5" width="222.5" height="105" as="geometry" />
        </mxCell>
      </root>
    </mxGraphModel>
  </diagram>
</mxfile>
